  <svg xmlns="http://www.w3.org/2000/svg" viewBox="-22.5 -27.5 3132.5 535">
    <g transform="rotate(-90 242.5 262.5)">
      <path
        stroke-linejoin="round"
        stroke-linecap="round"
        stroke="#000"
        fill="#707070"
        stroke-width="5"
        d="M20 0h490a20 20 0 0120 20v60a20 20 0 01-20 20H20A20 20 0 010 80V20A20 20 0 0120 0"
      />
      <path
        stroke-linejoin="round"
        stroke-linecap="round"
        stroke="#000"
        fill="#303030"
        stroke-width="5"
        d="M30 70h50V40H70v-7h-7v-7H47v7h-7v7H30zm10 0V60m10 10V60m10 10V60m10 10V60"
        id="prefix__a"
      />
      <use transform="translate(70)" href="#prefix__a" />
      <use transform="translate(140)" href="#prefix__a" />
      <use transform="translate(210)" href="#prefix__a" />
      <use transform="translate(280)" href="#prefix__a" />
      <use transform="translate(350)" href="#prefix__a" />
      <use transform="translate(420)" href="#prefix__a" />
    </g>
    <g
      stroke-linejoin="round"
      stroke-linecap="round"
      stroke="#000"
      fill="#00b0b0"
      stroke-width="5"
    >
      <path d="M230 20a100 100 0 110 200m0-20a80 80 0 100-160" />
      <path stroke="none" d="M130 20h100v20H130z" />
      <path d="M130 20h100m0 20H130m0-20z" />
      <path
        d="M150 200a50 50 0 00-30 90l14.14-14.14a30 30 0 0116-55.7"
        stroke="none"
      />
      <path d="M234 200h-90v20h90z" stroke="none" />
      <path
        d="M150 200a50 50 0 00-30 90m14.14-14.14a30 30 0 0116-55.7M234 200h-80m0 20h80"
        fill="none"
      />
      <path d="M134 276l155 150-14.14 14.14-155-150" stroke="none" />
      <path d="M134 276l155 150m-14.14 14.14l-155-150" />
      <path d="M288 425a70 70 0 0050 20v20a90 90 0 01-64.14-26" stroke="none" />
      <path d="M288 425a70 70 0 0050 20m0 20a90 90 0 01-64.14-26" fill="none" />
      <!-- <text style="font-size: 300px" x="350" y="400">ahn IT-Systemtechnik</text> -->
      <path transform="translate(320 180)" stroke-width="0.5mm" vector-effect="non-scaling-stroke" d="M 1626.253 102.75 L 1626.253 190 L 1604.503 190 L 1604.503 103.75 Q 1604.503 76.137 1583.892 72.539 A 38.628 38.628 0 0 0 1577.253 72 Q 1564.98 72 1557.114 76.457 A 24.7 24.7 0 0 0 1549.378 83.25 A 37.01 37.01 0 0 0 1543.956 94.082 Q 1541.003 103.234 1541.003 116 L 1541.003 190 L 1519.253 190 L 1519.253 103.75 A 53.321 53.321 0 0 0 1518.03 91.768 Q 1513.452 72 1491.753 72 A 51.044 51.044 0 0 0 1481.614 72.935 Q 1475.881 74.099 1471.598 76.713 A 23.526 23.526 0 0 0 1463.753 84.5 A 43.983 43.983 0 0 0 1459.03 95.422 Q 1456.05 105.65 1456.004 120.042 A 141.522 141.522 0 0 0 1456.003 120.5 L 1456.003 190 L 1434.003 190 L 1434.003 56 L 1451.753 56 L 1455.003 74.25 L 1456.253 74.25 Q 1462.503 63.75 1473.128 58.625 Q 1483.753 53.5 1495.753 53.5 A 67.557 67.557 0 0 1 1510.533 54.996 Q 1519.481 57.005 1525.789 61.716 A 33.831 33.831 0 0 1 1536.753 76 L 1538.003 76 Q 1544.753 64.5 1556.378 59 Q 1568.003 53.5 1581.003 53.5 A 70.808 70.808 0 0 1 1593.799 54.579 Q 1607.181 57.042 1615.003 65.125 Q 1626.152 76.646 1626.252 102.284 A 119.272 119.272 0 0 1 1626.253 102.75 Z M 172.003 0 L 172.003 55.75 A 159.544 159.544 0 0 1 172.003 55.906 Q 171.993 65.818 170.753 74.5 L 172.253 74.5 Q 178.753 64.25 189.878 59 A 55.623 55.623 0 0 1 213.192 53.755 A 63.953 63.953 0 0 1 214.003 53.75 A 82.199 82.199 0 0 1 227.796 54.829 Q 242.236 57.292 250.753 65.375 Q 260.062 74.209 262.297 91.199 A 88.737 88.737 0 0 1 263.003 102.75 L 263.003 190 L 241.253 190 L 241.253 104.25 A 50.288 50.288 0 0 0 239.868 91.881 Q 235.774 75.796 219.575 72.725 A 44.722 44.722 0 0 0 211.253 72 Q 188.753 72 180.378 84.625 A 43.498 43.498 0 0 0 175.113 96.148 Q 173.461 101.61 172.686 108.212 A 107.869 107.869 0 0 0 172.003 120.75 L 172.003 190 L 150.003 190 L 150.003 0 L 172.003 0 Z M 2041.003 0 L 2041.003 55.75 A 159.544 159.544 0 0 1 2041.003 55.906 Q 2040.993 65.818 2039.753 74.5 L 2041.253 74.5 Q 2047.753 64.25 2058.878 59 A 55.623 55.623 0 0 1 2082.192 53.755 A 63.953 63.953 0 0 1 2083.003 53.75 A 82.199 82.199 0 0 1 2096.796 54.829 Q 2111.236 57.292 2119.753 65.375 Q 2129.062 74.209 2131.297 91.199 A 88.737 88.737 0 0 1 2132.003 102.75 L 2132.003 190 L 2110.253 190 L 2110.253 104.25 A 50.288 50.288 0 0 0 2108.868 91.881 Q 2104.774 75.796 2088.575 72.725 A 44.722 44.722 0 0 0 2080.253 72 Q 2057.753 72 2049.378 84.625 A 43.498 43.498 0 0 0 2044.113 96.148 Q 2042.461 101.61 2041.686 108.212 A 107.869 107.869 0 0 0 2041.003 120.75 L 2041.003 190 L 2019.003 190 L 2019.003 0 L 2041.003 0 Z M 2414.253 0 L 2414.253 99.25 A 106.817 106.817 0 0 1 2414.23 101.406 Q 2414.159 104.875 2413.878 109.75 A 3021.904 3021.904 0 0 0 2413.614 114.379 Q 2413.512 116.205 2413.422 117.86 A 1628.531 1628.531 0 0 0 2413.253 121 L 2414.253 121 Q 2415.402 119.469 2417.429 116.912 A 496.16 496.16 0 0 1 2418.753 115.25 Q 2421.753 111.5 2424.878 107.625 A 240.268 240.268 0 0 1 2426.386 105.773 Q 2428.566 103.125 2430.253 101.25 L 2473.003 56 L 2498.753 56 L 2444.503 113.25 L 2502.503 190 L 2476.003 190 L 2429.503 127.5 L 2414.253 140.75 L 2414.253 190 L 2392.503 190 L 2392.503 0 L 2414.253 0 Z M 809.753 184 L 809.753 162.5 A 98.447 98.447 0 0 0 817.788 165.626 Q 821.787 166.998 826.389 168.266 A 194.516 194.516 0 0 0 832.128 169.75 Q 845.503 173 859.753 173 A 82.603 82.603 0 0 0 870.758 172.317 Q 882.759 170.699 889.878 165.25 A 24.639 24.639 0 0 0 899.845 147.477 A 32.181 32.181 0 0 0 900.003 144.25 A 33.99 33.99 0 0 0 899.384 137.594 Q 898.508 133.204 896.391 129.724 A 21.619 21.619 0 0 0 896.253 129.5 A 24.505 24.505 0 0 0 892.319 124.769 Q 890.227 122.779 887.467 120.898 A 55.617 55.617 0 0 0 883.378 118.375 A 98.381 98.381 0 0 0 876.979 115.111 Q 869.693 111.696 859.472 108.024 A 323.379 323.379 0 0 0 858.003 107.5 A 131.318 131.318 0 0 1 843.677 101.385 Q 836.691 97.864 831.22 93.832 A 60.577 60.577 0 0 1 823.628 87.25 A 39.891 39.891 0 0 1 813.505 68.284 Q 812.015 62.006 812.003 54.616 A 73.973 73.973 0 0 1 812.003 54.5 A 46.728 46.728 0 0 1 813.57 42.143 A 37.394 37.394 0 0 1 819.253 30.125 A 44.561 44.561 0 0 1 833.833 17.23 A 56.126 56.126 0 0 1 839.378 14.5 A 67.098 67.098 0 0 1 856.033 9.908 A 89.03 89.03 0 0 1 869.003 9 A 137.589 137.589 0 0 1 884.597 9.846 A 107.968 107.968 0 0 1 896.003 11.75 A 126.238 126.238 0 0 1 909.757 15.633 A 103.072 103.072 0 0 1 918.253 19 L 911.253 38.25 A 125.99 125.99 0 0 0 897.766 33.341 A 148.268 148.268 0 0 0 891.128 31.5 Q 880.253 28.75 868.503 28.75 Q 858.01 28.75 850.754 31.546 A 26.267 26.267 0 0 0 843.253 35.875 A 23.066 23.066 0 0 0 834.816 52.765 A 30.917 30.917 0 0 0 834.753 54.75 A 35.744 35.744 0 0 0 835.325 61.323 Q 836.065 65.274 837.759 68.46 A 21.297 21.297 0 0 0 838.503 69.75 A 25.325 25.325 0 0 0 842.877 74.931 Q 846.105 77.902 850.753 80.5 Q 856.464 83.691 864.883 87.221 A 277.926 277.926 0 0 0 873.753 90.75 A 190.603 190.603 0 0 1 886.388 95.853 Q 894.176 99.347 900.378 103.125 Q 911.253 109.75 916.878 119 Q 922.001 127.423 922.458 139.786 A 66.602 66.602 0 0 1 922.503 142.25 A 52.393 52.393 0 0 1 920.077 158.586 A 42.089 42.089 0 0 1 905.253 179.25 Q 890.109 190.883 865.715 192.303 A 119.832 119.832 0 0 1 858.753 192.5 A 176.267 176.267 0 0 1 842.59 191.788 A 141.283 141.283 0 0 1 831.003 190.25 A 114.671 114.671 0 0 1 822.038 188.316 Q 817.68 187.181 813.971 185.779 A 58.435 58.435 0 0 1 809.753 184 Z M 988.503 190.5 L 934.503 56 L 958.003 56 L 987.003 132.25 Q 990.753 142.25 993.753 151.375 A 141.293 141.293 0 0 1 996.885 162.305 A 115.202 115.202 0 0 1 998.253 168.75 L 999.253 168.75 Q 1000.753 162.5 1004.003 152.375 Q 1007.253 142.25 1010.753 132 L 1038.003 56 L 1061.753 56 L 1004.003 208.5 A 105.255 105.255 0 0 1 997.635 222.658 Q 993.449 230.306 988.304 236.149 A 61.477 61.477 0 0 1 985.878 238.75 A 36.752 36.752 0 0 1 967.41 248.73 A 54.996 54.996 0 0 1 955.253 250 Q 950.425 250 946.568 249.595 A 54.681 54.681 0 0 1 944.753 249.375 A 119.47 119.47 0 0 1 941.554 248.889 Q 939.034 248.469 937.003 248 L 937.003 230.5 Q 938.894 230.844 941.316 231.188 A 184.842 184.842 0 0 0 943.628 231.5 A 61.521 61.521 0 0 0 949.652 231.969 A 69.91 69.91 0 0 0 951.753 232 A 33.13 33.13 0 0 0 959.993 231.028 A 23.971 23.971 0 0 0 970.378 225.5 A 39.217 39.217 0 0 0 978.064 215.715 A 52.083 52.083 0 0 0 981.503 208.25 L 988.503 190.5 Z M 417.503 102.75 L 417.503 190 L 395.753 190 L 395.753 104.25 A 50.288 50.288 0 0 0 394.368 91.881 Q 390.274 75.796 374.075 72.725 A 44.722 44.722 0 0 0 365.753 72 A 61.887 61.887 0 0 0 354.903 72.882 Q 341.245 75.32 335.003 84.5 A 42.48 42.48 0 0 0 329.659 95.944 Q 327.983 101.382 327.197 107.972 A 106.039 106.039 0 0 0 326.503 120.5 L 326.503 190 L 304.503 190 L 304.503 56 L 322.253 56 L 325.503 74.25 L 326.753 74.25 Q 333.253 63.75 344.753 58.625 Q 356.253 53.5 369.003 53.5 A 78.99 78.99 0 0 1 382.776 54.621 Q 396.807 57.11 405.253 65.125 A 34.624 34.624 0 0 1 413.627 78.048 Q 417.503 88.125 417.503 102.75 Z M 2286.503 102.75 L 2286.503 190 L 2264.753 190 L 2264.753 104.25 A 50.288 50.288 0 0 0 2263.368 91.881 Q 2259.274 75.796 2243.075 72.725 A 44.722 44.722 0 0 0 2234.753 72 A 61.887 61.887 0 0 0 2223.903 72.882 Q 2210.245 75.32 2204.003 84.5 A 42.48 42.48 0 0 0 2198.659 95.944 Q 2196.983 101.382 2196.197 107.972 A 106.039 106.039 0 0 0 2195.503 120.5 L 2195.503 190 L 2173.503 190 L 2173.503 56 L 2191.253 56 L 2194.503 74.25 L 2195.753 74.25 Q 2202.253 63.75 2213.753 58.625 Q 2225.253 53.5 2238.003 53.5 A 78.99 78.99 0 0 1 2251.776 54.621 Q 2265.807 57.11 2274.253 65.125 A 34.624 34.624 0 0 1 2282.627 78.048 Q 2286.503 88.125 2286.503 102.75 Z M 1074.753 184 L 1074.753 164 A 94.232 94.232 0 0 0 1082.399 167.38 Q 1086.397 168.953 1090.996 170.413 A 170.955 170.955 0 0 0 1094.128 171.375 Q 1105.503 174.75 1117.253 174.75 Q 1131.859 174.75 1139.432 170.663 A 19.231 19.231 0 0 0 1141.503 169.375 Q 1148.849 164.111 1149 155.369 A 21.336 21.336 0 0 0 1149.003 155 Q 1149.003 150 1146.253 146 Q 1143.625 142.177 1137 138.354 A 60.437 60.437 0 0 0 1136.378 138 Q 1129.942 134.387 1118.508 129.957 A 306.97 306.97 0 0 0 1116.003 129 A 249.384 249.384 0 0 1 1106.78 125.25 Q 1099.534 122.125 1093.753 119 A 49.467 49.467 0 0 1 1086.473 114.242 A 36.039 36.039 0 0 1 1079.503 107 Q 1074.786 100.396 1074.519 90.231 A 46.935 46.935 0 0 1 1074.503 89 Q 1074.503 72.719 1087.229 63.546 A 38.266 38.266 0 0 1 1088.378 62.75 Q 1100.241 54.841 1118.409 53.695 A 100.731 100.731 0 0 1 1124.753 53.5 A 112.041 112.041 0 0 1 1139.431 54.428 A 94.02 94.02 0 0 1 1147.628 55.875 A 110.883 110.883 0 0 1 1147.794 55.912 Q 1157.009 57.987 1165.188 61.475 A 91.794 91.794 0 0 1 1167.503 62.5 L 1160.003 80 Q 1151.503 76.5 1142.253 74 Q 1133.003 71.5 1123.253 71.5 Q 1109.753 71.5 1102.628 75.875 A 17.188 17.188 0 0 0 1098.719 79.083 A 12.625 12.625 0 0 0 1095.503 87.75 A 15.471 15.471 0 0 0 1096.303 92.807 A 13.49 13.49 0 0 0 1098.753 97.125 A 19.156 19.156 0 0 0 1101.504 99.76 Q 1104.624 102.246 1109.628 104.625 Q 1117.253 108.25 1130.003 113.25 A 207.541 207.541 0 0 1 1139.038 116.848 Q 1143.913 118.929 1148.094 121.056 A 113.6 113.6 0 0 1 1151.753 123 A 45.557 45.557 0 0 1 1159.147 128.061 A 34.074 34.074 0 0 1 1165.503 135.125 A 27.249 27.249 0 0 1 1169.376 144.431 Q 1170.198 148.132 1170.25 152.421 A 47.996 47.996 0 0 1 1170.253 153 A 41.52 41.52 0 0 1 1168.461 165.537 A 31.784 31.784 0 0 1 1155.753 182.5 Q 1141.253 192.5 1116.753 192.5 A 146.645 146.645 0 0 1 1106.018 192.129 Q 1100.945 191.756 1096.519 191.007 A 77.371 77.371 0 0 1 1092.628 190.25 A 84.248 84.248 0 0 1 1083.097 187.563 A 64.811 64.811 0 0 1 1074.753 184 Z M 658.253 31.25 L 658.253 190 L 635.753 190 L 635.753 31.25 L 580.003 31.25 L 580.003 11.5 L 713.753 11.5 L 713.753 31.25 L 658.253 31.25 Z M 108.503 98.75 L 108.503 190 L 92.503 190 L 88.253 171 L 87.253 171 Q 79.452 180.808 70.955 186.044 A 45.338 45.338 0 0 1 68.878 187.25 A 36.945 36.945 0 0 1 60.622 190.449 Q 56.508 191.539 51.581 192.049 A 90.692 90.692 0 0 1 42.253 192.5 A 57.018 57.018 0 0 1 28.456 190.911 A 42.241 42.241 0 0 1 12.003 182.875 A 30.24 30.24 0 0 1 1.984 167.611 Q 0.436 162.507 0.098 156.308 A 65.277 65.277 0 0 1 0.003 152.75 Q 0.003 132.75 15.753 121.875 Q 31.503 111 64.253 110 L 87.003 109.25 L 87.003 101.25 Q 87.003 86.458 81.349 79.659 A 15.753 15.753 0 0 0 79.753 78 Q 72.503 71.5 59.253 71.5 Q 48.753 71.5 39.253 74.625 A 148.005 148.005 0 0 0 25.706 79.805 A 130.098 130.098 0 0 0 21.503 81.75 L 14.753 65.25 Q 23.23 60.648 34.756 57.337 A 139.575 139.575 0 0 1 35.503 57.125 Q 47.503 53.75 60.503 53.75 A 88.665 88.665 0 0 1 73.764 54.673 Q 80.531 55.699 85.944 57.867 A 35.223 35.223 0 0 1 96.753 64.5 A 32.62 32.62 0 0 1 105.284 77.642 Q 107.195 82.871 107.972 89.332 A 79.033 79.033 0 0 1 108.503 98.75 Z M 1400.003 114 L 1400.003 127.25 L 1308.253 127.25 Q 1308.604 143.235 1314.201 153.851 A 36.689 36.689 0 0 0 1319.878 161.875 A 36.359 36.359 0 0 0 1338.834 172.471 A 54.702 54.702 0 0 0 1351.003 173.75 Q 1363.753 173.75 1373.628 171.375 A 120.652 120.652 0 0 0 1387.421 167.135 A 144.243 144.243 0 0 0 1394.003 164.5 L 1394.003 183.75 A 108.098 108.098 0 0 1 1378.926 189.121 A 94.762 94.762 0 0 1 1373.753 190.375 A 89.593 89.593 0 0 1 1364.376 191.818 Q 1357.791 192.5 1350.003 192.5 A 79.217 79.217 0 0 1 1331.573 190.44 A 64.059 64.059 0 0 1 1316.378 184.75 Q 1301.753 177 1293.628 161.625 A 66.724 66.724 0 0 1 1287.409 143.942 Q 1285.503 134.777 1285.503 124 A 110.053 110.053 0 0 1 1286.816 106.55 Q 1288.39 96.755 1291.851 88.559 A 65.909 65.909 0 0 1 1292.878 86.25 Q 1300.253 70.5 1313.628 62 A 54.481 54.481 0 0 1 1337.197 53.907 A 68.636 68.636 0 0 1 1344.753 53.5 A 66.677 66.677 0 0 1 1358.914 54.936 A 50.095 50.095 0 0 1 1374.378 61 Q 1386.753 68.5 1393.378 82.125 Q 1400.003 95.75 1400.003 114 Z M 1865.003 114 L 1865.003 127.25 L 1773.253 127.25 Q 1773.604 143.235 1779.201 153.851 A 36.689 36.689 0 0 0 1784.878 161.875 A 36.359 36.359 0 0 0 1803.834 172.471 A 54.702 54.702 0 0 0 1816.003 173.75 Q 1828.753 173.75 1838.628 171.375 A 120.652 120.652 0 0 0 1852.421 167.135 A 144.243 144.243 0 0 0 1859.003 164.5 L 1859.003 183.75 A 108.098 108.098 0 0 1 1843.926 189.121 A 94.762 94.762 0 0 1 1838.753 190.375 A 89.593 89.593 0 0 1 1829.376 191.818 Q 1822.791 192.5 1815.003 192.5 A 79.217 79.217 0 0 1 1796.573 190.44 A 64.059 64.059 0 0 1 1781.378 184.75 Q 1766.753 177 1758.628 161.625 A 66.724 66.724 0 0 1 1752.409 143.942 Q 1750.503 134.777 1750.503 124 A 110.053 110.053 0 0 1 1751.816 106.55 Q 1753.39 96.755 1756.851 88.559 A 65.909 65.909 0 0 1 1757.878 86.25 Q 1765.253 70.5 1778.628 62 A 54.481 54.481 0 0 1 1802.197 53.907 A 68.636 68.636 0 0 1 1809.753 53.5 A 66.677 66.677 0 0 1 1823.914 54.936 A 50.095 50.095 0 0 1 1839.378 61 Q 1851.753 68.5 1858.378 82.125 Q 1865.003 95.75 1865.003 114 Z M 567.253 177 L 567.253 190 L 502.753 190 L 502.753 177 L 523.753 172.25 L 523.753 29.5 L 502.753 24.5 L 502.753 11.5 L 567.253 11.5 L 567.253 24.5 L 546.253 29.5 L 546.253 172.25 L 567.253 177 Z M 1266.253 171.75 L 1266.253 188.5 A 21.634 21.634 0 0 1 1263.633 189.581 Q 1260.62 190.619 1256.253 191.375 A 76.316 76.316 0 0 1 1247.168 192.411 A 66.353 66.353 0 0 1 1243.753 192.5 A 53.323 53.323 0 0 1 1230.672 190.939 A 47.041 47.041 0 0 1 1224.378 188.875 A 29.195 29.195 0 0 1 1211.71 178.803 A 36.969 36.969 0 0 1 1210.003 176.25 Q 1206.022 169.735 1204.922 159.421 A 79.621 79.621 0 0 1 1204.503 151 L 1204.503 73 L 1185.503 73 L 1185.503 62.5 L 1204.753 53.75 L 1213.503 25.25 L 1226.503 25.25 L 1226.503 56 L 1265.253 56 L 1265.253 73 L 1226.503 73 L 1226.503 150.5 Q 1226.503 158.309 1228.89 163.527 A 17.31 17.31 0 0 0 1232.378 168.625 A 19.825 19.825 0 0 0 1244.831 174.371 A 26.932 26.932 0 0 0 1247.503 174.5 Q 1252.503 174.5 1257.753 173.625 Q 1261.28 173.037 1263.905 172.393 A 42.37 42.37 0 0 0 1266.253 171.75 Z M 1731.253 171.75 L 1731.253 188.5 A 21.634 21.634 0 0 1 1728.633 189.581 Q 1725.62 190.619 1721.253 191.375 A 76.316 76.316 0 0 1 1712.168 192.411 A 66.353 66.353 0 0 1 1708.753 192.5 A 53.323 53.323 0 0 1 1695.672 190.939 A 47.041 47.041 0 0 1 1689.378 188.875 A 29.195 29.195 0 0 1 1676.71 178.803 A 36.969 36.969 0 0 1 1675.003 176.25 Q 1671.022 169.735 1669.922 159.421 A 79.621 79.621 0 0 1 1669.503 151 L 1669.503 73 L 1650.503 73 L 1650.503 62.5 L 1669.753 53.75 L 1678.503 25.25 L 1691.503 25.25 L 1691.503 56 L 1730.253 56 L 1730.253 73 L 1691.503 73 L 1691.503 150.5 Q 1691.503 158.309 1693.89 163.527 A 17.31 17.31 0 0 0 1697.378 168.625 A 19.825 19.825 0 0 0 1709.831 174.371 A 26.932 26.932 0 0 0 1712.503 174.5 Q 1717.503 174.5 1722.753 173.625 Q 1726.28 173.037 1728.905 172.393 A 42.37 42.37 0 0 0 1731.253 171.75 Z M 1989.503 60.75 L 1982.753 79 A 104.813 104.813 0 0 0 1977.12 77.079 Q 1974.22 76.176 1970.964 75.317 A 178.074 178.074 0 0 0 1968.753 74.75 A 69.451 69.451 0 0 0 1960.302 73.161 A 54.265 54.265 0 0 0 1953.753 72.75 A 43.22 43.22 0 0 0 1936.011 76.123 Q 1917.584 84.347 1914.763 112.624 A 109.759 109.759 0 0 0 1914.253 123.5 A 97.962 97.962 0 0 0 1915.187 137.505 Q 1916.219 144.633 1918.392 150.413 A 41.078 41.078 0 0 0 1923.878 160.625 A 31.126 31.126 0 0 0 1944.112 172.793 A 47.461 47.461 0 0 0 1952.503 173.5 Q 1962.633 173.5 1970.537 171.592 A 54.134 54.134 0 0 0 1971.878 171.25 A 100.93 100.93 0 0 0 1982.278 167.866 A 84.817 84.817 0 0 0 1987.253 165.75 L 1987.253 185.25 A 60.978 60.978 0 0 1 1975.867 189.727 A 70.773 70.773 0 0 1 1972.378 190.625 A 66.165 66.165 0 0 1 1965.22 191.839 Q 1961.696 192.252 1957.707 192.407 A 127.73 127.73 0 0 1 1952.753 192.5 A 74.332 74.332 0 0 1 1934.987 190.454 A 61.415 61.415 0 0 1 1921.128 185.25 A 49.591 49.591 0 0 1 1901.712 166.881 A 62.157 62.157 0 0 1 1899.378 162.75 A 64.454 64.454 0 0 1 1893.995 147.779 Q 1891.503 137.109 1891.503 123.75 Q 1891.503 99 1899.753 83.5 A 57.348 57.348 0 0 1 1909.823 69.709 A 49.049 49.049 0 0 1 1922.128 60.75 A 65.63 65.63 0 0 1 1944.435 54.073 A 81.981 81.981 0 0 1 1954.253 53.5 Q 1964.503 53.5 1974.003 55.625 Q 1983.503 57.75 1989.503 60.75 Z M 2328.003 56 L 2350.003 56 L 2350.003 190 L 2328.003 190 L 2328.003 56 Z M 86.753 124.5 L 67.003 125.25 Q 47.483 126.031 37.336 130.47 A 26.393 26.393 0 0 0 32.378 133.25 A 22.412 22.412 0 0 0 22.943 149.528 A 30.823 30.823 0 0 0 22.753 153 Q 22.753 161.194 26.401 166.206 A 15.909 15.909 0 0 0 29.628 169.5 A 24.773 24.773 0 0 0 39.374 173.933 Q 42.955 174.737 47.121 174.75 A 43.857 43.857 0 0 0 47.253 174.75 A 50.72 50.72 0 0 0 60.574 173.081 A 38.958 38.958 0 0 0 75.503 165.375 A 29.517 29.517 0 0 0 84.861 150.793 Q 86.339 145.875 86.663 139.918 A 63.055 63.055 0 0 0 86.753 136.5 L 86.753 124.5 Z M 1308.753 109.75 L 1377.003 109.75 Q 1376.753 92.75 1369.003 82.125 Q 1361.457 71.779 1345.376 71.507 A 51.707 51.707 0 0 0 1344.503 71.5 A 39.433 39.433 0 0 0 1333.623 72.924 A 29.324 29.324 0 0 0 1319.628 81.625 A 38.901 38.901 0 0 0 1312.179 94.16 Q 1310.245 99.313 1309.285 105.506 A 75.184 75.184 0 0 0 1308.753 109.75 Z M 1773.753 109.75 L 1842.003 109.75 Q 1841.753 92.75 1834.003 82.125 Q 1826.457 71.779 1810.376 71.507 A 51.707 51.707 0 0 0 1809.503 71.5 A 39.433 39.433 0 0 0 1798.623 72.924 A 29.324 29.324 0 0 0 1784.628 81.625 A 38.901 38.901 0 0 0 1777.179 94.16 Q 1775.245 99.313 1774.285 105.506 A 75.184 75.184 0 0 0 1773.753 109.75 Z M 787.003 132.75 L 726.503 132.75 L 726.503 113.25 L 787.003 113.25 L 787.003 132.75 Z M 2339.253 5.75 Q 2344.253 5.75 2348.128 9.125 A 10.414 10.414 0 0 1 2351.123 13.72 Q 2351.714 15.45 2351.908 17.577 A 23.938 23.938 0 0 1 2352.003 19.75 A 20.099 20.099 0 0 1 2351.625 23.783 Q 2351.137 26.162 2350.02 27.974 A 10.415 10.415 0 0 1 2348.128 30.25 Q 2344.253 33.75 2339.253 33.75 A 14.262 14.262 0 0 1 2334.336 32.929 A 12.649 12.649 0 0 1 2330.003 30.25 A 11.034 11.034 0 0 1 2327.03 25.396 Q 2326.472 23.628 2326.315 21.485 A 23.751 23.751 0 0 1 2326.253 19.75 Q 2326.253 15.076 2327.812 12.012 A 9.847 9.847 0 0 1 2330.003 9.125 A 13.056 13.056 0 0 1 2338.071 5.79 A 17.04 17.04 0 0 1 2339.253 5.75 Z" />
      <path d="M338 445h 2650 v20H338" stroke="none" />
      <path d="M338 445h 2650 m0 20H338" fill="none" />
      <use transform="translate(3100 485) rotate(180)" href="#prefix__c" />
    </g>
    <g id="prefix__c" transform="matrix(0 -.5 .5 0 100 55)">
      <g mask="url(#prefix__b)">
        <path fill="#757575" d="M0 0h100v45H0z" />
        <path fill="gray" d="M0 40h100v40H0z" />
        <path fill="#00b0b0" d="M0 80h100v150H0z" />
      </g>
      <mask id="prefix__b">
        <path
          fill="#fff"
          d="M0 80V20A20 20 90 0120 0h60a20 20 90 0120 20v60C90 250 10 250 0 80"
        />
      </mask>
      <g
        stroke-linejoin="round"
        stroke-linecap="round"
        stroke="#000"
        stroke-width="10"
      >
        <path
          fill="none"
          d="M0 80V20A20 20 90 0120 0h60a20 20 90 0120 20v60C90 250 10 250 0 80zh100M20 0v30M40 0v30M60 0v30M80 0v30"
        />
        <path fill="#00a1a1" d="M35 60l5 70h20l5-70z" />
      </g>
      <path
        stroke-linejoin="round"
        fill="#00b0b0"
        stroke="#000"
        stroke-width="10"
        d="M20 180h60v30H20zM30 210h40v30H30z"
      />
    </g>
  </svg>
