<svg xmlns="http://www.w3.org/2000/svg" viewBox="-22.5 -27.5 582.5 535" data-v-7a7a37b1=""><g transform="rotate(-90 242.5 262.5)"><path stroke-linejoin="round" stroke-linecap="round" stroke="#000" fill="#707070" stroke-width="5" d="M20 0h490a20 20 0 0120 20v60a20 20 0 01-20 20H20A20 20 0 010 80V20A20 20 0 0120 0"></path><path stroke-linejoin="round" stroke-linecap="round" stroke="#000" fill="#303030" stroke-width="5" d="M30 70h50V40H70v-7h-7v-7H47v7h-7v7H30zm10 0V60m10 10V60m10 10V60m10 10V60" id="prefix__a"></path><use transform="translate(70)" href="#prefix__a"></use><use transform="translate(140)" href="#prefix__a"></use><use transform="translate(210)" href="#prefix__a"></use><use transform="translate(280)" href="#prefix__a"></use><use transform="translate(350)" href="#prefix__a"></use><use transform="translate(420)" href="#prefix__a"></use></g><g stroke-linejoin="round" stroke-linecap="round" stroke="#000" fill="#00b0b0" stroke-width="5"><path d="M230 20a100 100 0 110 200m0-20a80 80 0 100-160"></path><path stroke="none" d="M130 20h100v20H130z"></path><path d="M130 20h100m0 20H130m0-20z"></path><path d="M150 200a50 50 0 00-30 90l14.14-14.14a30 30 0 0116-55.7" stroke="none"></path><path d="M234 200h-90v20h90z" stroke="none"></path><path d="M150 200a50 50 0 00-30 90m14.14-14.14a30 30 0 0116-55.7M234 200h-80m0 20h80" fill="none"></path><path d="M134 276l155 150-14.14 14.14-155-150" stroke="none"></path><path d="M134 276l155 150m-14.14 14.14l-155-150"></path><path d="M288 425a70 70 0 0050 20v20a90 90 0 01-64.14-26" stroke="none"></path><path d="M288 425a70 70 0 0050 20m0 20a90 90 0 01-64.14-26" fill="none"></path><text style="font-size: 300px;" x="350" y="400"></text><path d="M338 445h100v20H338" stroke="none"></path><path d="M338 445h100m0 20H338" fill="none"></path><use transform="translate(655 485) rotate(180)" href="#prefix__c"></use></g><g id="prefix__c" transform="matrix(0 -.5 .5 0 100 55)"><g mask="url(#prefix__b)"><path fill="#757575" d="M0 0h100v45H0z"></path><path fill="gray" d="M0 40h100v40H0z"></path><path fill="#00b0b0" d="M0 80h100v150H0z"></path></g><mask id="prefix__b"><path fill="#fff" d="M0 80V20A20 20 90 0120 0h60a20 20 90 0120 20v60C90 250 10 250 0 80"></path></mask><g stroke-linejoin="round" stroke-linecap="round" stroke="#000" stroke-width="10"><path fill="none" d="M0 80V20A20 20 90 0120 0h60a20 20 90 0120 20v60C90 250 10 250 0 80zh100M20 0v30M40 0v30M60 0v30M80 0v30"></path><path fill="#00a1a1" d="M35 60l5 70h20l5-70z"></path></g><path stroke-linejoin="round" fill="#00b0b0" stroke="#000" stroke-width="10" d="M20 180h60v30H20zM30 210h40v30H30z"></path></g></svg>
